inDegrees=no
num_controls=7
num_derivatives=13
num_iterations=79
num_multipliers=7
num_parameters=0
num_slacks=7
num_states=26
objective=0.333907
objective_accelerations=0.036533
objective_balance=0.001312
objective_effort=0.027034
objective_height=0.267555
objective_ligament=0.001472
solver_duration=840.640707
status=Solve_Succeeded
success=true
DataType=double
version=3
OpenSimVersion=4.5
endheader
time	/jointset/ground_pelvis/pelvis_tilt/value	/jointset/ground_pelvis/pelvis_tx/value	/jointset/ground_pelvis/pelvis_ty/value	/jointset/hip_r/hip_flexion_r/value	/jointset/hip_r/hip_adduction_r/value	/jointset/hip_r/hip_rotation_r/value	/jointset/back/lumbar_extension/value	/jointset/patellofemoral_r/patellar_flexion_r/value	/jointset/knee_r/knee_flexion_r/value	/jointset/knee_r/knee_adduction_r/value	/jointset/knee_r/knee_rotation_r/value	/jointset/ankle_r/ankle_angle_r/value	/jointset/subtalar_r/subtalar_angle_r/value	/jointset/ground_pelvis/pelvis_tilt/speed	/jointset/ground_pelvis/pelvis_tx/speed	/jointset/ground_pelvis/pelvis_ty/speed	/jointset/hip_r/hip_flexion_r/speed	/jointset/hip_r/hip_adduction_r/speed	/jointset/hip_r/hip_rotation_r/speed	/jointset/back/lumbar_extension/speed	/jointset/patellofemoral_r/patellar_flexion_r/speed	/jointset/knee_r/knee_flexion_r/speed	/jointset/knee_r/knee_adduction_r/speed	/jointset/knee_r/knee_rotation_r/speed	/jointset/ankle_r/ankle_angle_r/speed	/jointset/subtalar_r/subtalar_angle_r/speed	/forceset/tau_hip_flexion_r	/forceset/tau_hip_adduction_r	/forceset/tau_hip_rotation_r	/forceset/tau_knee_flexion_r	/forceset/tau_ankle_angle_r	/forceset/tau_subtalar_angle_r	/forceset/tau_lumbar_extension	lambda_cid13_p0	lambda_cid14_p0	lambda_cid14_p1	lambda_cid14_p2	lambda_cid14_p3	lambda_cid14_p4	lambda_cid14_p5	/jointset/ground_pelvis/pelvis_tilt/accel	/jointset/ground_pelvis/pelvis_tx/accel	/jointset/ground_pelvis/pelvis_ty/accel	/jointset/hip_r/hip_flexion_r/accel	/jointset/hip_r/hip_adduction_r/accel	/jointset/hip_r/hip_rotation_r/accel	/jointset/back/lumbar_extension/accel	/jointset/patellofemoral_r/patellar_flexion_r/accel	/jointset/knee_r/knee_flexion_r/accel	/jointset/knee_r/knee_adduction_r/accel	/jointset/knee_r/knee_rotation_r/accel	/jointset/ankle_r/ankle_angle_r/accel	/jointset/subtalar_r/subtalar_angle_r/accel	gamma_cid13_p0	gamma_cid14_p0	gamma_cid14_p1	gamma_cid14_p2	gamma_cid14_p3	gamma_cid14_p4	gamma_cid14_p5
0	-0.01033563459348619	0.1334376225191393	0.932714659347362	0.1934211968871041	-0.2356185485062119	-0.2340139834901698	-0.2903787966825928	0.2311786273363344	0.2311786273363406	0.149278794558325	0.1703847217693749	0.089344008118978	0.05454647116745649	0	0	0	0	0	0	0	0	0	0	0	0	0	0.1046080071887636	-0.03582261389583875	0.006054517893041929	-0.2421387801058699	0.1208651393573881	-0.1261110252055035	-0.02618012819469474	-29.89617498131693	-9.393069414459109	-51.48408506357885	2.997983382782901	3.607289264652371	-611.7906391393603	17.04222616156533	-2.054630583913552	-1.889837788988563	-0.8259489394153452	10.17658997149625	0.2499886285235573	2.23484240442521	-6.177425552391545	10.00248929936884	10.00248929936906	-3.073052610277579	0.3352231133258737	2.677123251729649	1.034453874289321	5.33883337093535e-08	4.171224206458947e-08	-3.516166778524358e-07	2.297879272618573e-07	5.982543445032109e-09	1.697098883089208e-07	-2.775706505871359e-07
0.01	-0.01043307659612023	0.1333453242664212	0.9326744746666827	0.1939177706680232	-0.2356032703792137	-0.2339015384430765	-0.2906904357939369	0.2316705327521913	0.2316705327521933	0.1491214420825053	0.1703968581363632	0.0894779484325568	0.05460164423689471	-0.01948110988536608	-0.01826093855110401	-0.008022830096322568	0.09885660717473334	0.003058681346938735	0.02237681992012404	-0.06204959325328589	0.09800859005589517	0.09800859005589553	-0.03137892955902748	0.00241311585985183	0.02684781942211561	0.01105899963960371	0.1071131616577013	-0.05685153015722506	0.005532352025014662	-0.2513970174476702	0.1319938187630367	-0.1128531361224972	-0.02694887602765275	-29.90097218298398	-5.133864835922998	-44.90909818040442	1.868273938446771	-1.310186963632828	-613.0234404815791	31.74398480329804	-1.89375860573365	-1.764413892268838	-0.7883001968662968	9.671475310554117	0.3342507109790364	2.222321965766706	-6.176991859846853	9.644159213690553	9.644159213690509	-3.156613909594281	0.1922789871267696	2.697584380312842	1.145252298395385	8.1009138091846e-08	3.954035676249872e-08	-5.120872986226567e-07	3.892806093027457e-07	2.999706153512488e-08	9.495634646808525e-08	-4.733049947060286e-07
0.02	-0.01072511118057731	0.1330763782273732	0.9325544916546151	0.1953891663647133	-0.2355573168741056	-0.233568681160789	-0.2916142239674223	0.2331313471395999	0.2331313471395989	0.1486530401548849	0.1704327102949292	0.08988216155893113	0.05476813316064885	-0.03891851636618072	-0.03532955726599073	-0.01595966627765065	0.1949643831531662	0.006135075621884064	0.04408244703867909	-0.1224298124285902	0.193781794311418	0.1937817943114185	-0.06220989035321518	0.004743158312175151	0.05405456255864589	0.02226317086318844	0.1096183161266299	-0.07788044641862517	0.00501018615704102	-0.2606552547894793	0.1431224981686768	-0.09959524703951217	-0.02771762386061516	-29.91493735366422	-0.7955428881185067	-38.34414050910979	0.7674443360775011	-6.145033728997469	-612.9416925841922	46.10215298411462	-2.045889903003474	-1.651373821744923	-0.8087501564164585	9.626823732236138	0.2535312141248902	2.100603844111416	-5.843550736795364	9.555412139294333	9.555412139294514	-2.963458857309651	0.3186084318201428	2.748907994612789	1.0634881910856	1.086299424743385e-07	3.736847146040798e-08	-6.725579193928777e-07	5.487732913436341e-07	5.401157962521765e-08	2.020280462724965e-08	-6.690393388249214e-07
0.03	-0.01121079307085416	0.1326415556613472	0.9323553879589614	0.1978079470811891	-0.2354811849876922	-0.2330237520540031	-0.2931311259780508	0.23553762133705	0.2355376213370534	0.1478808364499415	0.1704928861288722	0.09055790494850455	0.05504595815312781	-0.05812166131629352	-0.05155104792870644	-0.02385810057985976	0.2883026455572364	0.00905403598996137	0.06477962502804659	-0.1804806113141856	0.286976695316456	0.2869766953164567	-0.09200476796784454	0.007257538742785299	0.08093324532350805	0.0332174716306824	0.1029986655349785	-0.0792892391060966	0.005795092156710232	-0.2533880666540177	0.1325345740840941	-0.09343633732446192	-0.02228578253285748	-29.93752661511605	-3.881260474405568	-36.05487686765967	0.2257272409571322	-4.792022617709452	-613.4259782705515	49.62891361572645	-1.843090893277346	-1.594939587123184	-0.7799404876415131	9.113965565311148	0.3054943900314925	2.035820156632461	-5.71534770736933	9.127054763925182	9.127054763925116	-2.953640265730229	0.2127887965473068	2.633229115135789	1.098707084949165	1.154280980352532e-07	3.217787012688096e-08	-6.878892518737932e-07	5.917478840331462e-07	6.207464576718531e-08	-6.190021316313435e-08	-7.087396312773688e-07
0.04	-0.01188561923107969	0.132047037608977	0.9320773898361819	0.2011454380358736	-0.235376980309228	-0.2322755420912692	-0.2952144366261191	0.2388609496811256	0.2388609496811247	0.1468174563584809	0.170577192956653	0.09149761130526689	0.05543078736635528	-0.0767473703569258	-0.06726865453485174	-0.0317385517028023	0.3787064307940562	0.01174963403332961	0.08473861822874176	-0.2357115399169166	0.3771926236341597	0.3771926236341598	-0.1204451676701055	0.009569357088026652	0.1068471559968869	0.04366401501289456	0.09637901494334615	-0.08069803179354836	0.006579998156248415	-0.2461208785185333	0.121946649999524	-0.08727742760937569	-0.01685394120509158	-29.9676174409061	-6.894023385181748	-33.77220691012433	-0.2928158980845408	-3.375790873263238	-612.7165371200958	52.84657280157781	-1.93040272110757	-1.550597010430663	-0.8051535205631551	9.039928298786009	0.2088587491830892	1.952966886376961	-5.279576680222626	8.959617601827446	8.95961760182745	-2.692563274836	0.2780960147463529	2.555953576316325	0.9619367140293125	1.217969206307745e-07	2.692502722569546e-08	-7.002280217095685e-07	6.323200418906713e-07	6.98088159926968e-08	-1.44154766540107e-07	-7.452227267882401e-07
0.05	-0.01274456275463165	0.1312978848960058	0.9317203592290713	0.2053736154928152	-0.2352469443838296	-0.2313319670060062	-0.2978363717058629	0.2430725206167013	0.2430725206167013	0.145476250755539	0.1706841272450274	0.09269202753299634	0.05591768616057582	-0.09497323247270618	-0.08247424765315101	-0.03968762017334455	0.4665099906367517	0.01424546932365553	0.103852444289372	-0.2882966548004425	0.464689732474579	0.4646897324745792	-0.147632688169837	0.01176251331724598	0.1319150453112837	0.05367662630756855	0.09110255016784335	-0.07366368693151715	0.007012037627086565	-0.2419726801038491	0.1176132463435316	-0.08854893270906798	-0.01252600500731645	-30.00401559822298	-8.28927807784407	-34.62783047034952	-0.08888842594685648	-2.975540990763555	-612.0284047825128	49.5334290019625	-1.75845203310207	-1.492380376864078	-0.7928205740685895	8.587716512936364	0.268155030132601	1.872117987520312	-5.191155708050484	8.579958463216949	8.579958463216965	-2.707401533502805	0.1817974982208945	2.464059878034589	1.015021420099577	1.109560184943684e-07	1.773619727588584e-08	-6.02177162359508e-07	5.987146077131381e-07	6.695016159231548e-08	-2.09503607891e-07	-6.814164814387857e-07
